<?xml version="1.0" encoding="utf-8"?>
<!-- Generator: Adobe Illustrator 19.1.0, SVG Export Plug-In . SVG Version: 6.00 Build 0)  -->
<svg version="1.1" id="Layer_1" xmlns="http://www.w3.org/2000/svg" xmlns:xlink="http://www.w3.org/1999/xlink" x="0px" y="0px"
	 viewBox="-185 277 240 240" style="enable-background:new -185 277 240 240;" xml:space="preserve">
<style type="text/css">
	.st0{fill:#F8D64E;}
</style>
<g>
	<path class="st0" d="M-64,301.3l23,71.3l1.1,3.5h3.6h75.9l-61.4,44.8l-2.9,2.1l1.1,3.4l23.1,71.5l-60.6-44.2l-2.9-2.1l-2.9,2.1
		l-60.6,44.2l23.1-71.5l1.1-3.4l-2.9-2.1l-61.4-44.8h75.9h3.6l1.1-3.5L-64,301.3 M-64,285l-27.8,86H-183l73.8,53.8L-137,511l73-53.2
		L9,511l-27.8-86.2L55,371h-91.2L-64,285L-64,285z"/>
</g>
</svg>
